# xmcd
#
# Track frame offsets:
#  150
#  18892
#  35977
#  52310
#  69923
#  83989
#  102440
#  120450
#  136777
#  152351
#  175021
#  189849
#  207346
#
# Disc length: 2965 seconds
#
# Revision: 0
# Processed by: cddbd v1.5.1PL2 Copyright (c) Steve Scherf et al.
# Submitted via: Collectorz.com_Music_Collector 6.11
#
DISCID=a70b930d
DTITLE=Willie Walker and The Butanes - Memphisapolis
DYEAR=2006
DGENRE=Blues - Soul - Southern Soul
TTITLE0=What's It Take?
TTITLE1=I Won't Be Lonely
TTITLE2=Sweet (The Yeah, Yeah Song)
TTITLE3=The Dream For Me
TTITLE4=My Baby Drives Me Crazy
TTITLE5=Real Love
TTITLE6=The Last Time
TTITLE7=Exactly Like Me
TTITLE8=Just Wait Til I Get Home
TTITLE9=Cry, Cry, Cry
TTITLE10=Opposites Attract
TTITLE11=I'll Get To You
TTITLE12=Thanks For Being There
EXTD=
EXTT0=
EXTT1=
EXTT2=
EXTT3=
EXTT4=
EXTT5=
EXTT6=
EXTT7=
EXTT8=
EXTT9=
EXTT10=
EXTT11=
EXTT12=
PLAYORDER=
